<svg width="22" height="28" viewBox="0 0 22 28" fill="none" xmlns="http://www.w3.org/2000/svg">
<path d="M11.3117 6.73077C12.4766 6.73077 13.9367 5.90687 14.8062 4.80833C15.5937 3.81278 16.168 2.42244 16.168 1.0321C16.168 0.843293 16.1516 0.654482 16.1187 0.5C14.8227 0.551494 13.2641 1.40973 12.3289 2.55976C11.5906 3.43516 10.918 4.80833 10.918 6.21583C10.918 6.42181 10.9508 6.62778 10.9672 6.69644C11.0492 6.7136 11.1805 6.73077 11.3117 6.73077ZM7.21015 27.5C8.80156 27.5 9.50703 26.3843 11.4922 26.3843C13.5102 26.3843 13.9531 27.4657 15.725 27.4657C17.4641 27.4657 18.6289 25.7835 19.7281 24.1357C20.9586 22.2476 21.4672 20.3938 21.5 20.308C21.3852 20.2737 18.0547 18.849 18.0547 14.8497C18.0547 11.3824 20.6797 9.82041 20.8273 9.70025C19.0883 7.09123 16.4469 7.02257 15.725 7.02257C13.7727 7.02257 12.1812 8.25842 11.1805 8.25842C10.0977 8.25842 8.67031 7.09123 6.98047 7.09123C3.76484 7.09123 0.5 9.8719 0.5 15.1243C0.5 18.3856 1.71406 21.8357 3.20703 24.0671C4.48672 25.9552 5.60234 27.5 7.21015 27.5Z" fill="white"/>
</svg>
